<svg height="512" viewBox="0 0 128 128" width="512" xmlns="http://www.w3.org/2000/svg"><g><path d="m39.621 82.937 20.006-21.3a6 6 0 0 1 8.746 0l35.627 37.931-15.621-16.631 15.621-13.272v-60.92a4 4 0 0 0 -4-4h-72a4 4 0 0 0 -4 4v60.92z" fill="#f2f2fc"/><path d="m59.627 61.64-55.6 59.195a7.971 7.971 0 0 0 5.727 2.42h108.5a7.973 7.973 0 0 0 5.727-2.42l-55.608-59.195a6 6 0 0 0 -8.746 0z" fill="#ffda2d"/><path d="m1.75 58.761v56.494a7.969 7.969 0 0 0 2.273 5.58l35.6-37.9-35.33-30.013a7.971 7.971 0 0 0 -2.543 5.839z" fill="#fdbf00"/><path d="m123.706 52.922-35.327 30.015 35.6 37.9a7.973 7.973 0 0 0 2.273-5.58v-56.496a7.968 7.968 0 0 0 -2.546-5.839z" fill="#fdbf00"/><path d="m74.753 17.608a8.285 8.285 0 0 0 -9.915 4.386l-.838 1.775-.838-1.775a8.285 8.285 0 0 0 -9.915-4.386 8.286 8.286 0 0 0 -4.933 11.736 53.34 53.34 0 0 0 13.727 16.856l1.959 1.593 1.959-1.593a53.354 53.354 0 0 0 13.727-16.856 8.286 8.286 0 0 0 -4.933-11.736z" fill="#ff7cb9"/><g fill="#596c76"><path d="m4.293 52.922 19.707-12.24v28.983z"/><path d="m123.706 52.922-19.706-12.24v28.983z"/></g></g></svg>